<?xml version="1.0" encoding="utf-8"?>
<!-- Generator: Adobe Illustrator 25.4.1, SVG Export Plug-In . SVG Version: 6.00 Build 0)  -->
<svg version="1.1" id="Capa_1" xmlns="http://www.w3.org/2000/svg" xmlns:xlink="http://www.w3.org/1999/xlink" x="0px" y="0px"
	 viewBox="0 0 100 100" style="enable-background:new 0 0 100 100;" xml:space="preserve">
<style type="text/css">
	.st0{fill:none;}
	.st1{fill:#294697;}
	.st2{opacity:0.6;fill:url(#Nueva_muestra_de_motivo_4);}
</style>
<pattern  x="-908.31" y="175.65" width="99.76" height="98.89" patternUnits="userSpaceOnUse" id="Nueva_muestra_de_motivo_4" viewBox="0.07 -99.01 99.76 98.89" style="overflow:visible;">
	<g>
		<rect x="0.07" y="-99.01" class="st0" width="99.76" height="98.89"/>
		<path class="st1" d="M0.92-66.76c0.56-0.75,1.13-1.49,1.65-2.18C2-69.53,1.46-70.1,0.92-70.67c0-0.09,0-0.19,0-0.28
			c0.11-0.07,0.22-0.17,0.35-0.22c1.49-0.61,2.98-1.21,4.46-1.83c0.25-0.11,0.43-0.07,0.62,0.12c0.46,0.49,0.94,0.96,1.43,1.45
			c0.07-0.06,0.14-0.11,0.19-0.17c0.44-0.44,0.89-0.88,1.32-1.33c0.15-0.15,0.3-0.19,0.5-0.1c1.53,0.63,3.06,1.25,4.59,1.87
			c0.35,0.14,0.39,0.35,0.12,0.61c-0.5,0.51-1.01,1.01-1.53,1.53c0.52,0.69,1.02,1.36,1.52,2.03c0.27,0.36,0.24,0.48-0.16,0.68
			c-1.49,0.75-2.98,1.49-4.47,2.23c-0.33,0.17-0.4,0.15-0.63-0.15c-0.43-0.57-0.85-1.13-1.28-1.7c-0.05-0.06-0.1-0.12-0.18-0.21
			c-0.34,0.45-0.66,0.88-0.98,1.31c-0.17,0.22-0.34,0.44-0.5,0.67c-0.14,0.19-0.29,0.23-0.5,0.13c-1.55-0.78-3.09-1.55-4.64-2.33
			C1.07-66.4,1-66.47,0.92-66.53C0.92-66.61,0.92-66.68,0.92-66.76z M12.48-68.65c-1.41,0.71-2.8,1.4-4.2,2.1
			c0.05,0.08,0.09,0.15,0.13,0.2c0.37,0.49,0.75,0.98,1.1,1.48c0.13,0.19,0.24,0.19,0.43,0.09c0.87-0.45,1.74-0.88,2.62-1.31
			c0.44-0.22,0.88-0.44,1.34-0.67C13.42-67.4,12.95-68.02,12.48-68.65z M8.34-71.09c1.36,0.55,2.68,1.09,4,1.62
			c0.08,0.03,0.23,0.01,0.29-0.04c0.4-0.37,0.79-0.76,1.22-1.18c-0.14-0.06-0.22-0.1-0.31-0.14c-1.14-0.46-2.27-0.93-3.41-1.39
			c-0.46-0.19-0.46-0.19-0.81,0.16C8.99-71.75,8.67-71.43,8.34-71.09z M7.63-70.57c-0.53,0.2-1.05,0.41-1.57,0.63
			c-0.74,0.3-1.48,0.61-2.26,0.93c0.09,0.05,0.14,0.09,0.2,0.12c1.21,0.61,2.43,1.22,3.65,1.81c0.1,0.05,0.27,0.03,0.38-0.03
			c1.04-0.51,2.08-1.03,3.12-1.56c0.21-0.11,0.43-0.22,0.66-0.34c-0.05-0.03-0.07-0.04-0.09-0.05c-1.25-0.51-2.49-1.02-3.74-1.52
			C7.87-70.62,7.73-70.6,7.63-70.57z M2.98-69.51c0.05,0.05,0.19,0.06,0.27,0.04c1.32-0.53,2.64-1.07,4.01-1.63
			c-0.41-0.4-0.79-0.77-1.17-1.16c-0.11-0.12-0.2-0.14-0.36-0.08c-0.83,0.35-1.67,0.69-2.5,1.03c-0.48,0.2-0.96,0.39-1.47,0.6
			C2.19-70.29,2.58-69.89,2.98-69.51z M1.7-66.76c1.38,0.69,2.74,1.37,4.1,2.05c0.05,0.02,0.15,0,0.18-0.04
			c0.45-0.58,0.88-1.17,1.35-1.79c-1.43-0.72-2.82-1.41-4.22-2.11C2.64-68.01,2.18-67.4,1.7-66.76z"/>
		<path class="st1" d="M30.37-89.19c0.37-0.15,0.67-0.28,0.96-0.4c0.5-0.21,1.05,0.12,1.08,0.67c0.02,0.57,0.04,1.15-0.01,1.71
			c-0.02,0.19-0.23,0.42-0.41,0.54c-3.18,2.02-6.38,4.01-9.55,6.05c-2.51,1.62-4.99,3.29-7.49,4.94c-0.56,0.37-0.99,0.23-1.25-0.41
			c-0.06-0.16-0.09-0.33-0.14-0.49c-0.09-0.29-0.12-0.67-0.32-0.85c-0.17-0.15-0.55-0.06-0.84-0.09c-0.42-0.05-0.65-0.34-0.78-0.7
			c-0.2-0.55-0.35-1.12-0.54-1.67c-0.13-0.36-0.04-0.56,0.29-0.75c1.98-1.17,3.95-2.36,5.91-3.56c0.21-0.13,0.34-0.38,0.54-0.52
			c0.31-0.23,0.65-0.44,0.99-0.61c0.38-0.19,0.82-0.28,1.18-0.49c3.06-1.83,6.12-3.67,9.17-5.51c0.52-0.31,1.16,0.03,1.19,0.65
			C30.39-90.22,30.37-89.75,30.37-89.19z M29.67-90.32c-1.47,1.18-2.93,2.35-4.39,3.52c0.02,0.03,0.04,0.06,0.05,0.1
			c1.15-0.5,2.34-0.93,3.45-1.52C29.77-88.76,29.95-89.35,29.67-90.32z M20.63-85.46c0.01,0.02,0.02,0.05,0.04,0.07
			c0.75-0.14,1.51-0.27,2.25-0.41c0.12-0.88,0.86-1.38,1.7-1.22c0.17,0.03,0.42-0.02,0.55-0.12c1.23-0.96,2.44-1.94,3.66-2.92
			c0.27-0.21,0.53-0.43,0.79-0.65c-0.02-0.03-0.04-0.06-0.07-0.09C26.58-89.01,23.6-87.24,20.63-85.46z M18.54-83.94
			c0.05-0.58,0.44-0.62,0.8-0.68c1.33-0.24,2.67-0.47,4.01-0.73c0.39-0.07,0.79-0.15,1.14-0.33c0.41-0.21,0.51-0.82,0.18-0.94
			c-0.28-0.1-0.65-0.04-0.96,0.04c-0.28,0.07-0.49,0.3-0.38,0.69c0.13-0.05,0.21-0.17,0.31-0.22c0.24-0.13,0.5-0.24,0.76-0.32
			c0.05-0.01,0.23,0.25,0.22,0.26c-0.17,0.19-0.34,0.4-0.56,0.53c-0.16,0.1-0.39,0.08-0.59,0.12c-1.55,0.28-3.1,0.55-4.65,0.83
			C18.38-84.62,18.28-84.42,18.54-83.94z M13.68-79.68c-0.57,0-1.07,0-1.64,0c0.15,0.5,0.25,0.98,0.44,1.42
			c0.05,0.11,0.36,0.14,0.54,0.15c0.14,0,0.38-0.08,0.4-0.17C13.55-78.74,13.6-79.2,13.68-79.68z M14.48-80.45
			c0.54-0.34,1.1-0.63,1.45-1.23c0.29-0.51,0.85-0.83,1.43-0.83c0.66,0,1.13-0.33,1.65-0.63c0.33-0.19,0.66-0.39,0.99-0.6
			c0.11-0.07,0.23-0.17,0.26-0.28c0.09-0.38,0.36-0.46,0.69-0.47c0.14,0,0.29-0.06,0.43-0.09c-0.01-0.04-0.02-0.08-0.03-0.12
			c-0.62,0.12-1.23,0.22-1.84,0.36c-0.17,0.04-0.32,0.19-0.49,0.28c-0.31,0.15-0.56,0.64-0.97,0.13c-2.12,1.28-4.18,2.52-6.3,3.79
			C12.64-79.9,13.83-80.04,14.48-80.45z M15.91-81.1c0.92,0.07,1.58-0.35,1.83-1.15C16.94-82.2,16.35-81.85,15.91-81.1z M20.25-81.4
			c0-0.03-0.02-0.05-0.06-0.14c-0.16,0.1-0.29,0.17-0.42,0.25c-1.47,0.91-2.94,1.81-4.4,2.73c-0.43,0.27-1.06,0.48-1.2,0.86
			c-0.14,0.39,0.21,0.95,0.35,1.44c0.01,0.02,0.04,0.04,0.08,0.08c0.16-0.1,0.34-0.2,0.5-0.31c1.4-0.93,2.8-1.86,4.2-2.79
			C20.45-80.04,20.45-80.04,20.25-81.4z M20.49-82.18c0.1,0.72,0.18,1.32,0.26,1.93C21.04-80.52,20.86-81.81,20.49-82.18z
			 M31.85-88.67c-0.94,0.57-1.78,1.08-2.61,1.6c-2.59,1.59-5.19,3.18-7.77,4.77c-0.13,0.08-0.3,0.26-0.3,0.39
			c0,0.41,0.08,0.82,0.13,1.25c0.08-0.02,0.13-0.02,0.16-0.05c3.4-2.14,6.8-4.27,10.19-6.41c0.1-0.06,0.19-0.21,0.2-0.33
			C31.86-87.82,31.85-88.19,31.85-88.67z M25.37-86.46c-0.08,0.04-0.18,0.13-0.2,0.22c-0.18,0.77-0.74,1.01-1.43,1.09
			c-0.72,0.09-1.45,0.17-2.04,0.66c-0.1,0.09-0.21,0.22-0.23,0.34c-0.04,0.36-0.27,0.52-0.56,0.47c-0.43-0.06-0.74,0.12-1.07,0.33
			c-0.43,0.27-0.89,0.51-1.3,0.8c-0.2,0.14-0.39,0.34-0.51,0.55c-0.42,0.78-1.03,1.19-1.93,1.22c-0.3,0.01-0.63,0.11-0.9,0.27
			c-1.24,0.74-1.23,0.75-1.42,2.12c-0.02,0.11,0.04,0.24,0.07,0.41c2.13-1.32,4.18-2.6,6.24-3.87c-0.08-0.14-0.14-0.24-0.22-0.38
			c0.37-0.14,0.61-0.69,1.1-0.15c3.59-2.21,7.14-4.41,10.74-6.63c-0.1-0.02-0.14-0.05-0.16-0.04C29.5-88.19,27.43-87.33,25.37-86.46
			z"/>
		<path class="st1" d="M95.57-23.15c0-0.11-0.12-0.26-0.22-0.32c-0.22-0.12-0.4,0.01-0.53,0.2c-0.01,0.01-0.03,0.02-0.07,0.04
			c-0.1-0.07-0.2-0.14-0.3-0.22c0.18-0.34,0.49-0.5,0.86-0.46c0.36,0.04,0.66,0.3,0.75,0.62c0.1,0.41-0.12,0.75-0.58,0.86
			c-0.46,0.12-0.46,0.12-0.64,0.55c0.17,0.23,0.39,0.43,0.5,0.68c0.13,0.31,0.2,0.66,0.23,1c0.06,0.63,0.31,1.15,0.73,1.63
			c0.86,0.97,1.68,1.98,2.3,3.12c0.14,0.26,0.24,0.54,0.31,0.82c0.03,0.12-0.03,0.34-0.12,0.4c-0.09,0.05-0.3,0-0.4-0.09
			c-0.28-0.23-0.54-0.51-0.82-0.78c-0.29,0.48-0.71,0.55-1.22,0.3c-0.08,0.17-0.16,0.32-0.24,0.49c-0.14-0.07-0.26-0.13-0.41-0.2
			c0.08-0.16,0.15-0.31,0.24-0.47c-2.57-1.29-5.11-2.56-7.67-3.84c-0.09,0.16-0.17,0.3-0.26,0.46c-0.13-0.06-0.25-0.12-0.39-0.2
			c0.08-0.15,0.16-0.31,0.23-0.46c-0.59-0.48-0.65-0.65-0.47-1.19c-0.36-0.06-0.73-0.1-1.09-0.18c-0.14-0.03-0.24-0.18-0.36-0.27
			c0.1-0.12,0.17-0.32,0.29-0.35c0.57-0.13,1.15-0.29,1.73-0.31c1.08-0.03,2.17,0.02,3.25,0.07c0.41,0.02,0.78-0.04,1.13-0.23
			c0.15-0.08,0.31-0.16,0.45-0.25c0.52-0.31,1.05-0.5,1.68-0.28c0.06-0.11,0.12-0.21,0.16-0.32c0.09-0.26,0.27-0.4,0.54-0.45
			C95.36-22.8,95.58-22.89,95.57-23.15z M92.32-20.52c-1.46,0.14-2.93,0.22-4.39,0.31c-0.16,0.01-0.24,0.07-0.29,0.21
			c-0.11,0.31,0.01,0.53,0.36,0.64c0.05-0.08,0.11-0.17,0.16-0.24c0.14,0.07,0.26,0.13,0.39,0.19c-0.04,0.11-0.07,0.19-0.1,0.29
			c2.56,1.28,5.11,2.56,7.65,3.83c0.06-0.1,0.11-0.18,0.16-0.26c0.14,0.07,0.26,0.13,0.39,0.2c-0.04,0.1-0.08,0.19-0.13,0.31
			c0.1,0.04,0.2,0.12,0.26,0.1c0.17-0.05,0.34-0.12,0.48-0.23c0.06-0.05,0.07-0.24,0.02-0.32c-0.8-1.26-1.63-2.51-2.42-3.78
			C94.25-20.23,93.43-20.63,92.32-20.52z"/>
		<path class="st1" d="M99.72-45.77c0.2,0.38,0.13,0.72-0.17,1.02c-1.43,1.42-2.85,2.86-4.28,4.28c-0.43,0.43-0.71,0.41-1.34-0.07
			c0,1.16,0,2.25,0,3.35c0,3.87,0,7.74,0,11.6c0,0.62-0.2,0.85-0.82,0.97c-3.3,0.64-6.65,0.74-10,0.69
			c-2.55-0.04-5.09-0.2-7.59-0.69c-0.66-0.13-0.84-0.35-0.84-1.03c0-4.81,0-9.63,0-14.44c0-0.13,0-0.26,0-0.44
			c-0.1,0.07-0.16,0.11-0.23,0.16c-0.35,0.26-0.71,0.27-1.02-0.03c-1.49-1.48-2.97-2.96-4.45-4.45c-0.25-0.25-0.3-0.55-0.13-0.86
			c0.98-1.82,1.94-3.64,2.96-5.44c0.62-1.09,1.69-1.67,2.8-2.1c1.5-0.58,3.05-1.03,4.57-1.58c0.54-0.19,0.97-0.14,1.46,0.14
			c0.93,0.54,1.91,0.95,2.99,1.11c1.18,0.18,2.25-0.14,3.3-0.61c0.45-0.2,0.87-0.46,1.32-0.65c0.21-0.09,0.5-0.18,0.7-0.12
			c1.73,0.56,3.46,1.12,5.16,1.75c1.4,0.52,2.47,1.46,3.17,2.82C98.08-48.82,98.91-47.3,99.72-45.77z M80.85-52.88
			c0.36,1.94,1.98,3.2,3.87,3.05c1.55-0.12,2.82-1.73,2.99-3.03C85.44-51.72,83.16-51.73,80.85-52.88z M75.5-49.81
			c-0.11-0.65-0.3-1.29-0.45-1.94c-1.04,0.39-1.64,0.83-2.16,1.72c-0.82,1.42-1.57,2.87-2.36,4.31c-0.11,0.2-0.02,0.3,0.1,0.42
			c0.6,0.59,1.19,1.19,1.78,1.78c0.5,0.5,1,1.01,1.5,1.51c0.65-0.76,1.15-1.68,1.38-2.62C75.72-46.34,75.78-48.07,75.5-49.81z
			 M92.43-41.8c0-0.58-0.09-1.1-0.29-1.65c-0.86-2.33-0.88-4.73-0.41-7.14c0.11-0.59,0.29-1.16,0.45-1.78
			c-0.93-0.29-1.83-0.57-2.62-0.82c-0.4,0.89-0.68,1.76-1.15,2.52c-1.27,2.07-3.63,2.9-5.77,2.05c-1.8-0.71-2.78-2.15-3.29-3.96
			c-0.06-0.2-0.1-0.41-0.16-0.66c-0.95,0.3-1.85,0.58-2.66,0.84c0.21,1.2,0.48,2.32,0.59,3.45c0.19,2.03,0.02,4.03-0.8,5.93
			c-0.08,0.19-0.12,0.42-0.12,0.63c-0.01,5.29-0.01,10.58-0.01,15.87c0,0.14,0,0.28,0,0.45c2.42,0.84,14.03,0.83,16.26-0.01
			c0-0.12,0-0.24,0-0.37C92.43-31.55,92.42-36.67,92.43-41.8z M98.08-45.7c-0.87-1.58-1.72-3.17-2.63-4.73
			c-0.4-0.68-1.12-0.99-1.81-1.32c-1.04,2.45-1.09,7.52,1.05,9.72c1.12-1.12,2.25-2.24,3.37-3.37
			C98.11-45.45,98.12-45.62,98.08-45.7z"/>
		<path class="st1" d="M0.37-49.4c1.77-1.13,3.69-1.93,5.64-2.68c0.36-0.14,0.71-0.36,1.03-0.58c0.22-0.15,0.38-0.11,0.57,0.02
			c0.99,0.63,1.99,1.25,2.99,1.87c0.12,0.07,0.23,0.14,0.35,0.22c1.06-0.98,2.22-1.85,2.9-3.16c0.01-0.02,0.03-0.04,0.04-0.06
			c0.13-0.2,0.26-0.43,0-0.58c-0.24-0.14-0.38,0.06-0.5,0.25c-0.2,0.33-0.42,0.65-0.61,0.99c-0.12,0.22-0.29,0.26-0.52,0.25
			c-0.6-0.01-1.19,0.01-1.79,0.06c-0.29,0.02-0.42-0.05-0.52-0.33c-0.21-0.56-0.46-1.1-0.73-1.63c-0.11-0.21-0.15-0.37,0-0.58
			c0.23-0.33,0.42-0.68,0.64-1.02c0.12-0.18,0.2-0.39-0.01-0.53c-0.23-0.15-0.38,0.03-0.51,0.22c-0.57,0.85-1.02,1.74-1.24,2.75
			C8.07-53.82,8.07-53.68,8-53.61c-0.09,0.11-0.24,0.17-0.36,0.25c-0.08-0.13-0.25-0.3-0.21-0.4c0.23-0.75,0.47-1.49,0.77-2.21
			c0.18-0.42,0.47-0.8,0.72-1.18c0.28-0.44,0.81-0.55,1.24-0.27c0.41,0.26,0.54,0.78,0.28,1.21c-0.21,0.36-0.58,0.69-0.61,1.06
			c-0.03,0.36,0.3,0.73,0.46,1.11c0.08,0.18,0.14,0.37,0.2,0.53c0.56,0,1.09,0.01,1.63-0.01c0.1,0,0.23-0.08,0.29-0.17
			c0.2-0.29,0.37-0.59,0.56-0.89c0.29-0.45,0.8-0.57,1.23-0.31c0.45,0.27,0.54,0.78,0.29,1.27c-0.68,1.34-1.75,2.32-2.86,3.28
			c-0.32,0.28-0.45,0.6-0.46,1.01c-0.01,0.45-0.21,0.55-0.59,0.32c-0.18-0.11-0.36-0.22-0.57-0.35c-0.05,0.28-0.08,0.53-0.13,0.77
			c-0.04,0.21-0.16,0.38-0.37,0.3c-0.11-0.04-0.16-0.26-0.23-0.4c-0.01-0.02,0.01-0.05,0.01-0.07c0.14-1.22,0.31-0.85-0.86-1.56
			c-0.21,0.2-0.4,0.43-0.64,0.61c-0.11,0.08-0.34,0.14-0.44,0.08c-0.21-0.12-0.14-0.32,0-0.48c0.16-0.19,0.34-0.36,0.49-0.65
			c-0.14,0.01-0.31-0.03-0.42,0.04c-0.41,0.24-0.8,0.5-1.19,0.77c-0.18,0.13-0.37,0.21-0.52,0.01c-0.16-0.21-0.03-0.37,0.15-0.5
			c0.37-0.26,0.73-0.51,1.11-0.78c-0.28-0.28-0.55-0.35-0.95-0.19c-1.72,0.68-3.43,1.38-5.01,2.36c-0.08,0.05-0.16,0.11-0.25,0.16
			c1.62,3.5,6.08,6.28,9.92,6.19c0.17-1.59,0.17-3.18,0.04-4.78c-0.01-0.15-0.07-0.31-0.03-0.44c0.04-0.14,0.18-0.25,0.27-0.38
			c0.11,0.11,0.26,0.2,0.32,0.33c0.06,0.13,0.04,0.29,0.05,0.44c0.14,1.62,0.14,3.24-0.04,4.86c-0.01,0.13,0,0.26,0,0.4
			c-0.03,0.04-0.05,0.08-0.08,0.13c-0.18,0.03-0.36,0.09-0.54,0.09c-1.26,0-2.47-0.24-3.65-0.68c-0.6-0.22-1.19-0.5-1.78-0.75
			c-0.47-0.29-0.93-0.58-1.4-0.87c-0.49-0.42-0.99-0.83-1.46-1.27c-0.92-0.88-1.67-1.88-2.24-3.02C0-49,0.05-49.2,0.37-49.4z
			 M7.16-51.88c1.13,0.71,2.26,1.41,3.39,2.12c0.04-0.02,0.08-0.05,0.11-0.07c-0.06-0.1-0.1-0.25-0.19-0.31
			c-0.97-0.62-1.94-1.23-2.92-1.82c-0.1-0.06-0.25-0.02-0.38-0.02C7.17-51.96,7.17-51.92,7.16-51.88z"/>
		<path class="st1" d="M76.46-6.57c-1.31-0.65-2.61-1.3-3.92-1.96C72.47-8.57,72.4-8.7,72.4-8.79c-0.01-0.58-0.01-1.16,0-1.73
			c0-0.22-0.05-0.41-0.3-0.41c-0.25,0-0.31,0.18-0.31,0.41c0,0.64,0.01,1.29,0,1.93c-0.01,0.27,0.09,0.42,0.33,0.54
			c1.45,0.72,2.9,1.43,4.34,2.18c0.31,0.16,0.54,0.15,0.85,0c1.44-0.74,2.89-1.46,4.34-2.17c0.23-0.11,0.33-0.26,0.32-0.52
			c-0.02-0.65-0.01-1.3,0-1.96c0-0.23-0.07-0.4-0.32-0.4c-0.23,0-0.3,0.17-0.3,0.39c0.01,0.33,0,0.65,0,0.98
			c0,0.32,0.1,0.7-0.04,0.93c-0.14,0.23-0.52,0.31-0.8,0.46c-0.05,0.03-0.1,0.05-0.15,0.07c-1.04,0.52-2.08,1.04-3.17,1.58
			c-0.01-0.14-0.01-0.23-0.01-0.32c0-0.68,0-1.36,0-2.04c0-0.58,0-1.16,0-1.73c0-0.19-0.09-0.31-0.28-0.32
			c-0.2-0.01-0.31,0.11-0.33,0.31c-0.01,0.07-0.01,0.15-0.01,0.22c0,1.18,0,2.37,0,3.55c0,0.1,0,0.19,0,0.29
			C76.49-6.56,76.47-6.56,76.46-6.57z"/>
		<path class="st1" d="M85.39-4.73c0.5-0.38,1-0.8,1.38-1.29c1-1.29,1.95-2.62,2.9-3.95c0.77-1.08,1.52-2.18,2.27-3.28
			c0.19-0.27,0.38-0.28,0.65-0.1c1.08,0.72,1.78,1.7,2.12,2.95c0.06,0.23,0.11,0.46,0.16,0.69c0,0.34,0,0.68,0,1.01
			c-0.25,0.56-0.49,1.13-0.77,1.67c-0.25,0.49-0.4,0.99-0.39,1.55c0.01,1.41,0.01,2.82,0,4.23c0,0.38-0.07,0.45-0.45,0.46
			c-0.23,0-0.45,0-0.68,0c-0.56,0-0.6-0.04-0.6-0.59c0-1.45,0-2.91,0-4.36c0-0.49-0.11-0.56-0.6-0.48c-0.46,0.07-0.81,0.31-1.1,0.66
			c-1.09,1.32-2.2,2.63-3.26,3.97c-0.4,0.5-0.86,0.73-1.47,0.73c-1.75,0.01-3.49,0.05-5.24,0.03c-0.65-0.01-1.3-0.12-1.94-0.23
			c-0.42-0.07-0.74-0.31-0.82-0.78c-0.09-0.51,0.19-0.77,0.6-0.97c1.37-0.65,2.74-1.32,4.12-1.95c0.12-0.06,0.35,0,0.48,0.08
			C83.65-4.1,84.54-4.09,85.39-4.73z M94.25-8.79c-0.66,0.13-1.99,1.09-2.68,1.93c0.82,0.2,0.99,0.42,0.99,1.25c0,1.4,0,2.79,0,4.22
			c0.19,0,0.36,0,0.56,0c0.01-0.13,0.02-0.25,0.02-0.37c0-1.14,0.02-2.28-0.01-3.41c-0.02-0.86,0.17-1.64,0.62-2.38
			c0.2-0.33,0.33-0.71,0.49-1.07C94.24-8.68,94.24-8.73,94.25-8.79z M85.72-4.27c-0.97,0.77-2.03,0.74-3.1,0.19
			c-0.11-0.06-0.29-0.07-0.4-0.02c-1.26,0.59-2.52,1.2-3.78,1.81c-0.15,0.07-0.39,0.15-0.3,0.37c0.06,0.15,0.24,0.3,0.4,0.33
			c0.54,0.1,1.09,0.2,1.64,0.21c1.61,0.03,3.22,0.01,4.84,0c0.28,0,0.57,0,0.84-0.07c0.22-0.06,0.46-0.19,0.61-0.37
			c1.2-1.42,2.33-2.9,3.57-4.28c0.82-0.92,1.77-1.73,2.71-2.54c0.37-0.32,0.88-0.48,1.32-0.72c0.09-0.05,0.19-0.18,0.19-0.27
			c-0.02-1.12-0.91-2.57-1.97-3.18c-0.52,0.76-1.02,1.51-1.53,2.25c-1.1,1.57-2.18,3.15-3.34,4.67C86.94-5.29,86.33-4.76,85.72-4.27
			z"/>
		<path class="st1" d="M69.99-12.53c0.56-0.75,1.13-1.49,1.65-2.18c-0.56-0.6-1.11-1.17-1.65-1.74c0-0.09,0-0.19,0-0.28
			c0.11-0.07,0.22-0.17,0.35-0.22c1.49-0.61,2.98-1.21,4.46-1.83c0.25-0.11,0.43-0.07,0.62,0.12c0.46,0.49,0.94,0.96,1.43,1.45
			c0.07-0.06,0.14-0.11,0.19-0.17c0.44-0.44,0.89-0.88,1.32-1.33c0.15-0.15,0.3-0.19,0.5-0.1c1.53,0.63,3.06,1.25,4.59,1.87
			c0.35,0.14,0.39,0.35,0.12,0.61c-0.5,0.51-1.01,1.01-1.53,1.53c0.52,0.69,1.02,1.36,1.52,2.03c0.27,0.36,0.24,0.48-0.16,0.68
			c-1.49,0.75-2.98,1.49-4.47,2.23c-0.33,0.17-0.4,0.15-0.63-0.15c-0.43-0.57-0.85-1.13-1.28-1.7c-0.05-0.06-0.1-0.12-0.18-0.21
			c-0.34,0.45-0.66,0.88-0.98,1.31c-0.17,0.22-0.34,0.44-0.5,0.67c-0.14,0.19-0.29,0.23-0.5,0.13c-1.55-0.78-3.09-1.55-4.64-2.33
			c-0.09-0.04-0.16-0.12-0.24-0.18C69.99-12.38,69.99-12.45,69.99-12.53z M81.55-14.42c-1.41,0.71-2.8,1.4-4.2,2.1
			c0.05,0.08,0.09,0.15,0.13,0.2c0.37,0.49,0.75,0.98,1.1,1.48c0.13,0.19,0.24,0.19,0.43,0.09c0.87-0.45,1.74-0.88,2.62-1.31
			c0.44-0.22,0.88-0.44,1.34-0.67C82.48-13.17,82.02-13.79,81.55-14.42z M77.41-16.87c1.36,0.55,2.68,1.09,4,1.62
			c0.08,0.03,0.23,0.01,0.29-0.04c0.4-0.37,0.79-0.76,1.22-1.18c-0.14-0.06-0.22-0.1-0.31-0.14c-1.14-0.46-2.27-0.93-3.41-1.39
			c-0.46-0.19-0.46-0.19-0.81,0.16C78.06-17.52,77.74-17.2,77.41-16.87z M76.7-16.34c-0.53,0.2-1.05,0.41-1.57,0.63
			c-0.74,0.3-1.48,0.61-2.26,0.93c0.09,0.05,0.14,0.09,0.2,0.12c1.21,0.61,2.43,1.22,3.65,1.81c0.1,0.05,0.27,0.03,0.38-0.03
			c1.04-0.51,2.08-1.03,3.12-1.56c0.21-0.11,0.43-0.22,0.66-0.34c-0.05-0.03-0.07-0.04-0.09-0.05c-1.25-0.51-2.49-1.02-3.74-1.52
			C76.94-16.39,76.8-16.38,76.7-16.34z M72.05-15.28c0.05,0.05,0.19,0.06,0.27,0.04c1.32-0.53,2.64-1.07,4.01-1.63
			c-0.41-0.4-0.79-0.77-1.17-1.16c-0.11-0.12-0.2-0.14-0.36-0.08c-0.83,0.35-1.67,0.69-2.5,1.03c-0.48,0.2-0.96,0.39-1.47,0.6
			C71.26-16.07,71.65-15.67,72.05-15.28z M70.77-12.53c1.38,0.69,2.74,1.37,4.1,2.05c0.05,0.02,0.15,0,0.18-0.04
			c0.45-0.58,0.88-1.17,1.35-1.79c-1.43-0.72-2.82-1.41-4.22-2.11C71.71-13.78,71.25-13.17,70.77-12.53z"/>
		<path class="st1" d="M8.13-91.77c0.03-0.1-0.02-0.25-0.08-0.34c-0.44-0.73-0.45-1.54,0.16-2.1c0.79-0.71,1.22-1.6,1.65-2.52
			c0.21-0.44,0.24-0.45,0.68-0.25c0.02,0.01,0.04,0.02,0.06,0.03c0.62,0.29,0.62,0.3,0.35,0.91c-0.17,0.39-0.17,0.76,0.01,1.13
			c0.16,0.32,0.33,0.63,0.49,0.95c0.02,0.04,0.05,0.07,0.09,0.13c0.43-0.09,0.86-0.16,1.28-0.27c0.42-0.11,0.67-0.41,0.85-0.8
			c0.2-0.44,0.27-0.45,0.71-0.24c0.67,0.32,0.68,0.32,0.36,0.98c-0.42,0.83-0.78,1.65-0.83,2.61c-0.04,0.84-0.69,1.39-1.52,1.5
			c-0.15,0.02-0.33,0.12-0.42,0.24c-0.6,0.81-0.96,1.68-0.75,2.74c0.31,1.59-0.23,2.97-1.17,4.24c-0.83,1.12-1.65,2.26-2.22,3.54
			c-0.09,0.21-0.23,0.28-0.44,0.17c-0.02-0.01-0.04-0.02-0.06-0.03c-0.64-0.28-0.64-0.28-0.4-0.94c0.06-0.16,0.1-0.33,0.15-0.49
			c-0.02-0.01-0.03-0.02-0.05-0.03c-0.17,0.25-0.35,0.49-0.51,0.74c-0.11,0.18-0.25,0.22-0.44,0.13c-1.15-0.56-2.3-1.11-3.45-1.66
			c-0.21-0.1-0.21-0.24-0.14-0.46c0.48-1.38,0.99-2.76,1.42-4.16c0.46-1.5,1.25-2.7,2.66-3.43C7.52-89.94,7.88-90.81,8.13-91.77z
			 M6.43-88.76c-1.04,0.56-1.62,1.54-1.97,2.67c-0.32,1.06-0.65,2.12-0.99,3.17c-0.13,0.39-0.3,0.77-0.45,1.15
			c1.07,0.51,2.1,1.01,3.15,1.51c0.51-0.75,1-1.49,1.52-2.21c0.08-0.11,0.27-0.15,0.4-0.22c0.02,0.15,0.1,0.32,0.06,0.46
			C7.92-81.48,7.66-80.74,7.42-80c-0.03,0.1-0.04,0.2-0.06,0.3c0.09-0.02,0.12-0.05,0.14-0.08c0.68-1.07,1.31-2.18,2.06-3.2
			c1.01-1.37,1.48-2.81,1.13-4.51c-0.07-0.36,0-0.79,0.12-1.15c0.18-0.53,0.47-1.01,0.72-1.53c-0.46-0.23-0.88-0.53-0.97-1.1
			c-0.02-0.11,0.1-0.24,0.16-0.36c0.1,0.08,0.23,0.15,0.31,0.25c0.18,0.21,0.3,0.51,0.52,0.64c0.9,0.53,1.84,0.02,1.9-1.04
			c0.04-0.66,0.18-1.27,0.5-1.85c0.13-0.23,0.24-0.47,0.34-0.72c0.03-0.08-0.03-0.19-0.04-0.29c-0.04,0-0.07,0-0.11,0
			c-0.32,0.61-0.8,1.02-1.49,1.12c-0.18,0.03-0.36,0.07-0.54,0.1c-1,0.18-0.76,0.29-1.28-0.61c-0.42-0.75-0.76-1.49-0.29-2.34
			c-0.26-0.11-0.26-0.12-0.38,0.15c-0.39,0.85-0.81,1.66-1.54,2.31c-0.63,0.55-0.45,1.48,0.28,1.9c0.33,0.19,0.67,0.27,1.05,0.11
			c0.1-0.04,0.25,0.05,0.38,0.09c-0.06,0.12-0.1,0.27-0.19,0.35c-0.09,0.08-0.23,0.13-0.35,0.13c-0.38-0.02-0.76-0.08-1.21-0.13
			C8.31-90.26,7.58-89.38,6.43-88.76z"/>
		<path class="st1" d="M33.95-63.77c0.34-0.01,0.55-0.19,0.57-0.54c0.02-0.33-0.23-0.6-0.55-0.6c-0.31,0-0.55,0.23-0.57,0.54
			C33.38-64.02,33.62-63.75,33.95-63.77z"/>
		<path class="st1" d="M67.34-85.72c-1.31-0.65-2.61-1.3-3.92-1.96c-0.07-0.04-0.14-0.17-0.14-0.26c-0.01-0.58-0.01-1.16,0-1.73
			c0-0.22-0.05-0.41-0.3-0.41c-0.25,0-0.31,0.18-0.31,0.41c0,0.64,0.01,1.29,0,1.93c-0.01,0.27,0.09,0.42,0.33,0.54
			c1.45,0.72,2.9,1.43,4.34,2.18c0.31,0.16,0.54,0.15,0.85,0c1.44-0.74,2.89-1.46,4.34-2.17c0.23-0.11,0.33-0.26,0.32-0.52
			c-0.02-0.65-0.01-1.3,0-1.96c0-0.23-0.07-0.4-0.32-0.4c-0.23,0-0.3,0.17-0.3,0.39c0.01,0.33,0,0.65,0,0.98
			c0,0.32,0.1,0.7-0.04,0.93c-0.14,0.23-0.52,0.31-0.8,0.46c-0.05,0.03-0.1,0.05-0.15,0.07c-1.04,0.52-2.08,1.04-3.17,1.58
			c-0.01-0.14-0.01-0.23-0.01-0.32c0-0.68,0-1.36,0-2.04c0-0.58,0-1.16,0-1.73c0-0.19-0.09-0.31-0.28-0.32
			c-0.2-0.01-0.31,0.11-0.33,0.31c-0.01,0.07-0.01,0.15-0.01,0.22c0,1.18,0,2.37,0,3.55c0,0.1,0,0.19,0,0.29
			C67.37-85.71,67.35-85.71,67.34-85.72z"/>
		<path class="st1" d="M80.83-79.3c0.11-1.85,0.13-3.71,0.2-5.57c0.04-0.9,0.13-0.96,1.01-0.96c1.38,0.01,2.75,0,4.13,0
			c0,0.02,0,0.04,0,0.06c1.4,0,2.8-0.01,4.19,0c0.83,0,0.96,0.14,0.96,0.94c0,2.1,0.01,4.19-0.02,6.29c0,0.31-0.16,0.67-0.37,0.91
			c-0.56,0.64-1.17,1.24-1.8,1.81c-0.22,0.2-0.55,0.35-0.84,0.36c-1.4,0.05-2.8,0.07-4.19,0.04c-0.33-0.01-0.71-0.18-0.97-0.39
			c-0.51-0.41-0.91-0.96-1.42-1.35C80.96-77.71,80.77-78.4,80.83-79.3z M82.16-84.13c1.06,0,2.04,0,3.02,0
			c1.55-0.01,3.1-0.02,4.65-0.05c0.13,0,0.26-0.14,0.4-0.22c-0.13-0.08-0.25-0.22-0.38-0.22c-0.59-0.03-1.18-0.03-1.77-0.03
			c-1.96,0-3.92,0-5.92,0C82.16-84.52,82.16-84.35,82.16-84.13z M81.96-78.64c0,0.16,0.16,0.35,0.29,0.48
			c1.62,1.7,1.62,1.7,3.97,1.69c0.15,0,0.31-0.03,0.46,0c1.16,0.19,1.99-0.28,2.78-1.14c0.56-0.61,0.84-1.18,0.8-2.01
			c-0.06-1.12-0.01-2.25-0.01-3.4c-2.75,0-5.41,0-8.29,0C81.95-81.51,81.94-80.08,81.96-78.64z"/>
		<path class="st1" d="M12.84-14.89c0,0.89,0.01,1.78-0.01,2.67c0,0.13-0.07,0.29-0.16,0.39c-0.24,0.27-0.5,0.53-0.77,0.77
			c-0.09,0.08-0.24,0.15-0.36,0.15c-0.59,0.02-1.19,0.03-1.78,0.02c-0.14,0-0.3-0.08-0.41-0.17c-0.22-0.17-0.38-0.41-0.6-0.58
			c-0.32-0.24-0.4-0.54-0.37-0.92c0.05-0.79,0.05-1.58,0.09-2.37c0.02-0.38,0.06-0.41,0.43-0.41c0.58,0,1.17,0,1.75,0
			c0,0.01,0,0.02,0,0.03c0.59,0,1.19,0,1.78,0C12.78-15.28,12.84-15.23,12.84-14.89z M8.95-14.59c0.45,0,0.87,0,1.28,0
			c0.66,0,1.32-0.01,1.98-0.02c0.06,0,0.11-0.06,0.17-0.09c-0.05-0.03-0.11-0.09-0.16-0.09c-0.25-0.01-0.5-0.01-0.75-0.01
			c-0.83,0-1.67,0-2.52,0C8.95-14.76,8.95-14.69,8.95-14.59z M12.38-12.68c-0.03-0.48-0.01-0.96-0.01-1.44c-1.17,0-2.3,0-3.53,0
			c0,0.64,0,1.25,0.01,1.86c0,0.07,0.07,0.15,0.12,0.2c0.69,0.72,0.69,0.72,1.69,0.72c0.06,0,0.13-0.01,0.19,0
			c0.49,0.08,0.85-0.12,1.18-0.48C12.28-12.09,12.4-12.33,12.38-12.68z"/>
		<path class="st1" d="M67.77-60.02c-0.14,0.27-0.26,0.52-0.4,0.79c-0.23-0.12-0.43-0.21-0.66-0.33c0.13-0.25,0.25-0.5,0.39-0.77
			c-4.16-2.08-8.28-4.15-12.43-6.23c-0.15,0.26-0.28,0.49-0.43,0.75c-0.21-0.1-0.4-0.2-0.64-0.32c0.12-0.25,0.25-0.5,0.37-0.74
			c-0.95-0.77-1.05-1.05-0.76-1.93c-0.59-0.09-1.19-0.15-1.77-0.3c-0.22-0.05-0.39-0.29-0.59-0.44c0.16-0.2,0.28-0.52,0.47-0.56
			c0.93-0.22,1.87-0.47,2.81-0.5c1.75-0.05,3.51,0.04,5.27,0.11c0.66,0.03,1.26-0.07,1.83-0.38c0.24-0.13,0.49-0.26,0.73-0.4
			c0.84-0.51,1.71-0.81,2.72-0.45c0.09-0.18,0.19-0.34,0.25-0.51c0.15-0.41,0.43-0.65,0.87-0.73c0.35-0.06,0.7-0.21,0.68-0.63
			c0-0.18-0.19-0.43-0.36-0.52c-0.36-0.19-0.64,0.02-0.86,0.32c-0.02,0.02-0.05,0.03-0.11,0.07c-0.16-0.11-0.33-0.23-0.49-0.35
			c0.3-0.56,0.8-0.81,1.39-0.74c0.58,0.07,1.07,0.48,1.21,1.01c0.17,0.66-0.2,1.21-0.94,1.4c-0.74,0.19-0.74,0.19-1.04,0.89
			c0.28,0.37,0.64,0.7,0.81,1.11c0.21,0.5,0.32,1.07,0.38,1.61c0.1,1.02,0.5,1.86,1.19,2.64c1.4,1.57,2.72,3.2,3.73,5.06
			c0.23,0.42,0.39,0.88,0.5,1.34c0.05,0.2-0.05,0.55-0.2,0.64c-0.14,0.09-0.49-0.01-0.65-0.14c-0.46-0.38-0.87-0.82-1.32-1.26
			C69.26-59.74,68.59-59.61,67.77-60.02z M67.6-61.31c0.22,0.11,0.42,0.21,0.63,0.32c-0.07,0.16-0.13,0.3-0.21,0.5
			c0.17,0.07,0.32,0.2,0.42,0.17c0.27-0.08,0.56-0.2,0.78-0.38c0.09-0.08,0.11-0.39,0.03-0.51c-1.3-2.05-2.63-4.07-3.92-6.12
			c-0.96-1.54-2.29-2.17-4.1-2c-2.37,0.22-4.74,0.35-7.11,0.5c-0.26,0.02-0.39,0.11-0.47,0.33c-0.18,0.5,0.01,0.86,0.58,1.03
			c0.09-0.13,0.18-0.27,0.26-0.4c0.23,0.11,0.43,0.21,0.62,0.31c-0.06,0.17-0.11,0.32-0.17,0.46c4.15,2.08,8.27,4.14,12.39,6.21
			C67.43-61.04,67.51-61.17,67.6-61.31z"/>
		<path class="st1" d="M52.08-33.08c1.54-2.05,1.43-4.29,0.97-6.6c-0.05-0.25-0.3-0.51-0.53-0.65c-1.7-1.1-2.56-2.84-1.81-4.65
			c0.95-2.32,0.97-4.69,0.94-7.1c-0.02-1.16,0.05-1.22,1.2-1.22c0.05,0,0.11,0,0.16,0c1.62-0.01,1.64-0.01,1.68,1.59
			c0.03,1,0.41,1.81,1.19,2.42c0.67,0.52,1.35,1.02,2.04,1.53c0.09,0.06,0.18,0.11,0.33,0.19c0.82-0.63,1.67-1.22,2.47-1.89
			c0.79-0.66,1.02-1.58,1.01-2.59c-0.02-1.15,0.1-1.25,1.27-1.25c1.77-0.01,1.8-0.01,1.77,1.72c-0.04,2.2,0.03,4.34,0.91,6.45
			c0.78,1.85-0.06,3.68-1.71,4.78c-0.3,0.2-0.59,0.59-0.65,0.93c-0.46,2.36-0.33,4.57,1.21,6.64c2.3,3.08,2.56,6.59,1.84,10.28
			c-0.64,3.26-1.21,6.53-1.11,9.87c0.02,0.54-0.21,0.83-0.77,0.82c-0.05,0-0.11,0-0.16,0c-1.66,0.05-1.66,0.05-1.83-1.61
			c-0.04-0.41-0.12-0.81-0.18-1.21c-0.04,0-0.09,0-0.13,0c-0.11,0.7-0.24,1.4-0.33,2.1c-0.06,0.5-0.3,0.73-0.8,0.73
			c-3.04-0.01-6.07-0.01-9.11,0c-0.56,0-0.71-0.3-0.77-0.83c-0.39-3.46-0.71-6.92-1.24-10.36C49.36-26.67,49.83-30.07,52.08-33.08z
			 M52.51-31.5c-1.64,2.27-1.89,4.97-1.47,7.73c0.4,2.6,0.79,5.2,1.15,7.81c0.13,0.97,0.14,1.95,0.21,2.92c2.82,0,5.54,0,8.3,0
			c0.32-2.13,0.62-4.22,0.98-6.3c0.06-0.32,0.42-0.59,0.64-0.88c0.21,0.31,0.55,0.59,0.6,0.93c0.28,1.84,0.48,3.7,0.72,5.55
			c0.03,0.24,0.12,0.47,0.17,0.71c0.18-0.13,0.21-0.23,0.22-0.33c0.36-2.99,0.55-6.01,1.11-8.97c0.75-3.97,0.27-7.55-2.22-10.82
			c-0.53-0.7-0.82-1.69-0.93-2.59c-0.15-1.31-0.04-2.65-0.04-4.01c-1.23-0.02-2.44-0.23-3.21-1.37c-0.15-0.22-0.03-0.63-0.03-0.95
			c0.31,0.07,0.64,0.09,0.92,0.21c0.6,0.26,1.17,0.78,1.78,0.83c2.47,0.21,3.95-1.86,3-4.17c-0.59-1.45-0.92-2.92-0.83-4.48
			c0.04-0.63,0.04-1.27-0.01-1.89c-0.02-0.2-0.26-0.38-0.39-0.58c-0.07,0.04-0.15,0.08-0.22,0.11c-0.05,1.65-0.66,2.99-2.03,3.93
			c-0.36,0.25-0.7,0.53-1.06,0.78c-1.95,1.41-1.34,1.41-3.36,0c-1.67-1.17-3.16-2.41-3.03-4.7c-0.66,0.02-0.68,0.02-0.67,0.71
			c0.04,2.23-0.02,4.39-0.93,6.53c-0.78,1.82,0.57,3.63,2.56,3.79c0.91,0.07,1.72-0.11,2.37-0.85c0.17-0.19,0.6-0.14,0.91-0.21
			c-0.01,0.32,0.07,0.67-0.04,0.95c-0.1,0.26-0.36,0.53-0.62,0.63c-0.84,0.34-1.71,0.62-2.72,0.97C54.98-36.63,54.32-34,52.51-31.5z
			"/>
		<path class="st1" d="M14.16-18.38c-0.03,1.35,0.18,2.69,0.38,4.01c0.2,1.32,0.16,2.62,0.06,3.94c-0.1,1.25-0.17,2.5-0.26,3.75
			c-0.04,0.63-0.08,1.26-0.12,1.89c-0.01,0.21-0.12,0.31-0.34,0.31C11.64-4.5,9.41-4.52,7.17-4.54c-0.1,0-0.25-0.1-0.29-0.19
			c-1.12-2.2-2.23-4.42-3.35-6.62c-0.12-0.23-0.04-0.35,0.19-0.44c0.97-0.38,1.92-0.78,2.89-1.15c0.22-0.09,0.31-0.19,0.31-0.44
			c-0.01-1.66,0-3.32,0.02-4.99c0-0.13,0.07-0.26,0.11-0.39c2.3,0,4.61,0,6.91,0C14.03-18.63,14.17-18.5,14.16-18.38z M6.88-11.73
			c-0.85,0.34-1.67,0.66-2.51,1C5.2-9.09,6.01-7.48,6.82-5.87c0.02,0,0.04-0.01,0.06-0.01C6.88-7.82,6.88-9.76,6.88-11.73z
			 M6.93-12.5c-0.03-0.02-0.05-0.03-0.08-0.05c-0.93,0.37-1.87,0.75-2.82,1.13c0.05,0.09,0.09,0.17,0.14,0.27
			c0.88-0.35,1.75-0.69,2.62-1.05C6.86-12.23,6.88-12.4,6.93-12.5z M12.8-17.31c0.31,0,0.61,0,0.9,0c0-0.33,0-0.63,0-0.93
			c-0.32,0-0.62,0-0.9,0C12.8-17.92,12.8-17.61,12.8-17.31z M12.02-17.3c0.1-0.01,0.19-0.01,0.26-0.02c0-0.33,0-0.63,0-0.94
			c-0.09,0-0.17,0-0.26,0C12.02-17.92,12.02-17.62,12.02-17.3z M9.44-17.32c0.71,0,1.39,0,2.07,0c0-0.32,0-0.62,0-0.93
			c-0.7,0-1.38,0-2.07,0C9.44-17.93,9.44-17.63,9.44-17.32z M8.71-18.13c-0.01,0.23-0.02,0.46,0,0.69c0.01,0.06,0.11,0.11,0.17,0.17
			c0.02-0.02,0.05-0.04,0.07-0.05c0-0.27,0.01-0.53-0.01-0.8c0-0.05-0.07-0.1-0.11-0.14C8.78-18.22,8.71-18.18,8.71-18.13z
			 M7.4-17.31c0.27,0,0.53,0,0.81,0c0-0.33,0-0.63,0-0.95c-0.28,0-0.54,0-0.81,0C7.4-17.93,7.4-17.63,7.4-17.31z M14.23-12.77
			c-0.1-1.24-0.3-2.47-0.42-3.7c-0.03-0.31-0.13-0.35-0.4-0.35c-1.88,0.01-3.75,0.01-5.63,0.01c-0.12,0-0.24,0-0.4,0
			c0,3.96,0,7.87,0,11.79C7.4-5.01,7.43-4.99,7.45-4.99c2.04,0.01,4.09,0.03,6.13,0.03c0.07,0,0.18-0.12,0.19-0.19
			c0.05-0.62,0.09-1.24,0.13-1.86c0.09-1.3,0.18-2.59,0.26-3.89C14.2-11.53,14.28-12.15,14.23-12.77z"/>
		<path class="st1" d="M7.39-60.79c-1.31-0.65-2.61-1.3-3.92-1.96c-0.07-0.04-0.14-0.17-0.14-0.26c-0.01-0.58-0.01-1.16,0-1.73
			c0-0.22-0.05-0.41-0.3-0.41c-0.25,0-0.31,0.18-0.31,0.41c0,0.64,0.01,1.29,0,1.93c-0.01,0.27,0.09,0.42,0.33,0.54
			c1.45,0.72,2.9,1.43,4.34,2.18c0.31,0.16,0.54,0.15,0.85,0c1.44-0.74,2.89-1.46,4.34-2.17c0.23-0.11,0.33-0.26,0.32-0.52
			c-0.02-0.65-0.01-1.3,0-1.96c0-0.23-0.07-0.4-0.32-0.4c-0.23,0-0.3,0.17-0.3,0.39c0.01,0.33,0,0.65,0,0.98
			c0,0.32,0.1,0.7-0.04,0.93c-0.14,0.23-0.52,0.31-0.8,0.46c-0.05,0.03-0.1,0.05-0.15,0.07c-1.04,0.52-2.08,1.04-3.17,1.58
			c-0.01-0.14-0.01-0.23-0.01-0.32c0-0.68,0-1.36,0-2.04c0-0.58,0-1.16,0-1.73c0-0.19-0.09-0.31-0.28-0.33
			c-0.2-0.01-0.31,0.11-0.33,0.31c-0.01,0.07-0.01,0.15-0.01,0.22c0,1.18,0,2.37,0,3.55c0,0.1,0,0.19,0,0.29
			C7.43-60.79,7.41-60.79,7.39-60.79z"/>
		<path class="st1" d="M55.69-85.74c2.1,0.97,4.18,1.98,6.27,2.98c0.63,0.3,1.04,0.7,0.91,1.47c-0.12,0.72-0.6,1.08-1.25,1.2
			c-0.98,0.17-1.97,0.35-2.95,0.36c-2.66,0.03-5.32-0.03-7.98-0.05c-0.93-0.01-1.64-0.35-2.24-1.12c-1.61-2.05-3.3-4.04-4.96-6.05
			c-0.44-0.53-0.97-0.89-1.68-1.01c-0.75-0.12-0.91-0.01-0.91,0.73c0,2.21,0,4.43,0,6.64c0,0.83-0.06,0.89-0.91,0.89
			c-0.34,0-0.69,0-1.03,0c-0.58-0.01-0.69-0.11-0.69-0.69c0-2.15-0.02-4.29,0.01-6.44c0.01-0.85-0.22-1.61-0.6-2.36
			c-0.43-0.83-0.78-1.7-1.17-2.55c0-0.52,0-1.03,0-1.55c0.08-0.35,0.15-0.7,0.24-1.05c0.52-1.9,1.59-3.39,3.23-4.49
			c0.41-0.27,0.71-0.26,0.99,0.15c1.15,1.67,2.28,3.35,3.45,4.99c1.44,2.02,2.89,4.05,4.41,6.01c0.58,0.75,1.34,1.38,2.1,1.96
			c1.29,0.98,2.64,0.96,4.02,0.09C55.16-85.74,55.51-85.83,55.69-85.74z M41.53-88.96c-1.05-1.28-3.08-2.73-4.09-2.93
			c0.01,0.09,0.01,0.18,0.04,0.25c0.24,0.55,0.44,1.12,0.74,1.63c0.67,1.12,0.97,2.31,0.94,3.62c-0.04,1.73-0.01,3.47-0.01,5.2
			c0,0.18,0.02,0.37,0.02,0.56c0.3,0,0.56,0,0.85,0c0-2.17,0-4.29,0-6.42C40.03-88.32,40.28-88.65,41.53-88.96z M55.77-84.76
			c-0.16-0.08-0.44-0.05-0.6,0.04c-1.64,0.85-3.25,0.89-4.73-0.28c-0.93-0.74-1.87-1.55-2.58-2.49c-1.76-2.32-3.4-4.73-5.08-7.12
			c-0.79-1.12-1.55-2.26-2.34-3.42c-1.61,0.92-2.97,3.13-3,4.84c0,0.14,0.16,0.34,0.29,0.42c0.67,0.38,1.45,0.62,2.02,1.1
			c1.43,1.22,2.87,2.47,4.12,3.86c1.89,2.1,3.62,4.35,5.44,6.52c0.22,0.26,0.59,0.46,0.92,0.56c0.4,0.11,0.85,0.11,1.28,0.11
			c2.45,0.01,4.91,0.03,7.36,0c0.83-0.01,1.67-0.16,2.49-0.31c0.23-0.04,0.51-0.29,0.6-0.51c0.15-0.34-0.22-0.45-0.45-0.57
			C59.61-82.93,57.69-83.86,55.77-84.76z"/>
		<path class="st1" d="M30.52-78.49c2.29,0,4.59,0,6.88,0c0.28,0.3,0.6,0.58,0.84,0.92c0.59,0.81,1.39,1.27,2.33,1.58
			c1.1,0.36,2.17,0.81,3.26,1.21c1.05,0.39,1.84,1.08,2.34,2.08c2.08,4.18,4.13,8.38,6.21,12.56c0.21,0.42,0.05,0.61-0.3,0.8
			c-2.25,1.21-4.49,2.43-6.74,3.63c-0.29,0.15-0.38,0.32-0.37,0.64c0.09,4.23,0.17,8.46,0.25,12.69c0.02,1.24,0.04,2.48,0.1,3.72
			c0.02,0.44-0.15,0.67-0.51,0.88c-2.03,1.15-4.2,1.86-6.48,2.31c-2.76,0.55-5.53,0.61-8.3,0.07c-0.26-0.05-0.59-0.04-0.52-0.43
			c0.07-0.39,0.41-0.27,0.65-0.22c1.54,0.28,3.1,0.44,4.67,0.35c3.33-0.2,6.5-0.96,9.46-2.54c0.29-0.15,0.37-0.33,0.37-0.66
			c-0.12-8.49-0.24-16.99-0.34-25.48c0-0.27-0.12-0.68,0.32-0.69c0.5-0.01,0.33,0.44,0.33,0.71c0.01,2.67,0.01,5.33,0.01,8.11
			c2.29-1.24,4.52-2.45,6.78-3.67c-0.54-1.1-1.07-2.18-1.6-3.26c-1.48-3-2.96-5.99-4.43-8.99c-0.49-1-1.21-1.69-2.27-2.06
			c-1.19-0.42-2.37-0.89-3.56-1.34c-0.17-0.06-0.34-0.12-0.55-0.19c-0.41,2.19-1.57,3.94-2.91,5.6c-0.39,0.49-0.54,0.48-0.91-0.01
			c-0.5-0.67-1-1.34-1.54-2.06c-0.51,0.69-1,1.34-1.49,1.99c-0.44,0.59-0.55,0.6-1.02,0.01c-1.2-1.5-2.26-3.07-2.72-4.96
			c-0.04-0.16-0.07-0.33-0.12-0.54c-0.12,0.03-0.24,0.04-0.35,0.08c-1.33,0.5-2.66,1-3.99,1.5c-0.83,0.31-1.48,0.86-1.88,1.65
			c-2.07,4.17-4.13,8.34-6.21,12.56c2.25,1.22,4.48,2.42,6.79,3.67c0-0.26,0-0.42,0-0.59c0-2.51,0-5.02,0-7.53
			c0-0.14-0.03-0.29,0.02-0.41c0.05-0.12,0.18-0.28,0.28-0.28c0.11,0,0.26,0.13,0.33,0.24c0.06,0.09,0.03,0.24,0.03,0.36
			c-0.11,8.51-0.22,17.02-0.35,25.53c-0.01,0.37,0.09,0.57,0.42,0.72c0.44,0.2,0.87,0.4,1.28,0.65c0.14,0.09,0.19,0.32,0.29,0.48
			c-0.19,0.03-0.41,0.15-0.56,0.08c-0.59-0.26-1.16-0.58-1.74-0.87c-0.27-0.13-0.36-0.34-0.35-0.64c0.08-3.86,0.16-7.72,0.24-11.58
			c0.03-1.7,0.08-3.41,0.09-5.11c0-0.16-0.17-0.38-0.32-0.47c-2.24-1.23-4.48-2.44-6.73-3.66c-0.54-0.29-0.56-0.36-0.3-0.9
			c2.02-4.11,4.05-8.21,6.07-12.32c0.54-1.1,1.36-1.86,2.51-2.28c1.35-0.5,2.7-0.99,4.03-1.52c0.32-0.13,0.62-0.34,0.86-0.58
			C29.58-77.43,30.04-77.97,30.52-78.49z M33.47-72.69c-1.59-1.12-2.85-2.46-3.21-4.55c-0.19,0.21-0.3,0.37-0.44,0.48
			c-0.62,0.45-0.61,1.03-0.4,1.68c0.51,1.65,1.45,3.05,2.53,4.43C32.47-71.35,32.97-72.01,33.47-72.69z M36.52-75.98
			c-1.7,0-3.4,0-5.18,0c0.63,1.24,1.55,2.1,2.62,2.79C35.27-74.05,36.26-75.13,36.52-75.98z M34.46-72.67
			c0.49,0.65,0.97,1.31,1.5,2.02c1.08-1.38,2.04-2.78,2.53-4.44c0.29-0.99,0.05-1.52-0.84-2.04C37.16-75.21,36.91-74.86,34.46-72.67
			z M30.91-77.74c0.02,0.17,0.02,0.28,0.04,0.39c0.09,0.68,0.09,0.68,0.78,0.68c1.41,0,2.82,0,4.23,0c0.97,0,0.97,0,1.04-0.96
			c0-0.03-0.02-0.05-0.04-0.11C34.96-77.74,32.96-77.74,30.91-77.74z"/>
		<path class="st1" d="M16.92-29.41c0.02-0.77,0.02-0.77-0.57-1.25c-0.44,0.16-0.85,0.42-1.29,0.47c-0.54,0.06-1.11,0.01-1.65-0.09
			c-1.01-0.19-1.93-0.04-2.87,0.4c-1.89,0.9-3.83,1.72-5.9,2.17c-0.46,0.1-0.95,0.13-1.42,0.11c-0.2-0.01-0.51-0.2-0.56-0.37
			c-0.04-0.16,0.14-0.47,0.32-0.59c0.49-0.33,1.03-0.6,1.58-0.92c-0.61-0.67-0.54-1.35,0.08-2.03c-0.22-0.21-0.42-0.39-0.65-0.6
			c0.17-0.19,0.33-0.35,0.5-0.54c0.21,0.19,0.41,0.38,0.63,0.58c3.16-3.41,6.3-6.79,9.45-10.19c-0.21-0.21-0.39-0.41-0.6-0.62
			c0.16-0.17,0.3-0.33,0.48-0.52c0.2,0.19,0.41,0.38,0.61,0.57c1.01-0.69,1.31-0.72,2.07-0.19c0.25-0.54,0.48-1.1,0.78-1.61
			c0.11-0.2,0.39-0.3,0.59-0.44c0.14,0.2,0.42,0.42,0.41,0.61c-0.05,0.95-0.07,1.92-0.31,2.84c-0.44,1.7-1.02,3.37-1.58,5.03
			c-0.21,0.62-0.29,1.23-0.15,1.86c0.06,0.27,0.11,0.55,0.18,0.81c0.25,0.94,0.3,1.86-0.32,2.74c0.15,0.14,0.27,0.28,0.42,0.38
			c0.36,0.26,0.51,0.6,0.46,1.04c-0.04,0.35,0.01,0.73,0.41,0.83c0.17,0.05,0.46-0.06,0.6-0.2c0.28-0.3,0.16-0.62-0.07-0.92
			c-0.02-0.02-0.02-0.06-0.03-0.12c0.15-0.12,0.32-0.25,0.47-0.38c0.45,0.44,0.56,0.99,0.33,1.55c-0.23,0.54-0.76,0.9-1.31,0.88
			C17.32-28.14,16.9-28.65,16.92-29.41z M16.91-42.14c0.06-0.26,0.01-0.41-0.19-0.55c-0.43-0.31-0.83-0.23-1.15,0.27
			c0.1,0.12,0.21,0.25,0.31,0.36c-0.17,0.19-0.32,0.35-0.47,0.51c-0.15-0.11-0.27-0.2-0.4-0.29c-3.15,3.4-6.29,6.78-9.42,10.17
			c0.13,0.14,0.23,0.25,0.34,0.37c-0.17,0.18-0.32,0.35-0.48,0.52c-0.14-0.11-0.26-0.21-0.42-0.34c-0.12,0.14-0.28,0.25-0.28,0.35
			c0,0.29,0.03,0.59,0.14,0.85c0.05,0.11,0.34,0.21,0.48,0.17c2.33-0.67,4.64-1.39,6.97-2.05c1.74-0.49,2.72-1.59,3.07-3.37
			C15.86-37.51,16.39-39.82,16.91-42.14z"/>
		<path class="st1" d="M77.29-60.92c-2.64-5.19-5.25-10.39-7.87-15.58c-0.28-0.55-0.09-0.83,0.45-1.05c2.27-0.89,4.53-1.82,6.8-2.7
			c0.52-0.2,0.73-0.44,0.72-1.02c-0.02-3.91,0.01-7.82,0.04-11.73c0-0.3,0.16-0.6,0.25-0.91c5.42,0,10.84,0,16.26,0
			c0.17,0.29,0.5,0.59,0.5,0.88c-0.07,3.18,0.42,6.32,0.88,9.44c0.46,3.1,0.38,6.17,0.14,9.26c-0.23,2.94-0.41,5.88-0.6,8.82
			c-0.1,1.48-0.19,2.96-0.28,4.44c-0.03,0.5-0.28,0.73-0.8,0.73c-5.26-0.05-10.53-0.08-15.79-0.14
			C77.75-60.48,77.4-60.71,77.29-60.92z M91.23-90.52c0.74,0,1.43,0,2.11,0c0-0.78,0-1.49,0-2.18c-0.76,0-1.45,0-2.11,0
			C91.23-91.94,91.23-91.23,91.23-90.52z M89.39-90.49c0.24-0.01,0.44-0.03,0.61-0.04c0-0.78,0-1.49,0-2.21c-0.22,0-0.39,0-0.61,0
			C89.39-91.96,89.39-91.25,89.39-90.49z M83.34-90.54c1.67,0,3.27,0,4.88,0c0-0.76,0-1.46,0-2.2c-1.65,0-3.25,0-4.88,0
			C83.34-91.99,83.34-91.28,83.34-90.54z M81.61-90.83c0.01,0.14,0.26,0.26,0.39,0.39c0.06-0.04,0.11-0.09,0.17-0.13
			c0-0.63,0.01-1.25-0.01-1.88c0-0.12-0.18-0.22-0.27-0.34c-0.1,0.11-0.28,0.21-0.28,0.32C81.57-91.91,81.56-91.37,81.61-90.83z
			 M78.53-90.52c0.64,0,1.24,0,1.9,0c0-0.77,0-1.49,0-2.23c-0.65,0-1.27,0-1.9,0C78.53-91.99,78.53-91.27,78.53-90.52z M78.47-61.6
			c0.06,0.02,0.12,0.06,0.18,0.06c4.81,0.03,9.61,0.06,14.42,0.06c0.15,0,0.43-0.28,0.44-0.45c0.13-1.46,0.2-2.92,0.3-4.38
			c0.2-3.05,0.42-6.1,0.61-9.15c0.09-1.46,0.29-2.93,0.17-4.37c-0.24-2.91-0.71-5.8-0.99-8.71c-0.07-0.72-0.32-0.82-0.94-0.82
			c-4.41,0.02-8.83,0.01-13.24,0.01c-0.28,0-0.56,0-0.94,0C78.47-80.03,78.47-70.82,78.47-61.6z M70.92-76.03
			c2.08-0.82,4.13-1.62,6.15-2.46c0.18-0.08,0.24-0.46,0.35-0.71c-0.06-0.04-0.13-0.07-0.19-0.11c-2.2,0.88-4.39,1.75-6.64,2.65
			C70.71-76.43,70.81-76.25,70.92-76.03z M77.16-63.6c0.05-0.01,0.1-0.02,0.15-0.03c0-4.56,0-9.11,0-13.75
			c-1.99,0.79-3.93,1.56-5.9,2.35C73.34-71.18,75.25-67.39,77.16-63.6z"/>
		<path class="st1" d="M33.97-54.47c-0.31-0.03-0.58,0.26-0.57,0.69c0.01,0.26,0.22,0.44,0.55,0.47c0.31,0.03,0.58-0.26,0.57-0.59
			C34.51-54.26,34.29-54.43,33.97-54.47z"/>
		<path class="st1" d="M33.96-48.09c0.32,0,0.58-0.27,0.56-0.6c-0.01-0.36-0.23-0.53-0.56-0.55c-0.32-0.03-0.57,0.26-0.56,0.6
			C33.41-48.33,33.65-48.09,33.96-48.09z"/>
		<path class="st1" d="M33.4-43.48c-0.02,0.34,0.22,0.6,0.6,0.61c0.28-0.03,0.5-0.18,0.52-0.54c0.02-0.34-0.22-0.61-0.55-0.6
			C33.64-44,33.42-43.83,33.4-43.48z"/>
		<path class="st1" d="M60.87-91.68c0.56-0.75,1.13-1.49,1.65-2.18c-0.56-0.6-1.11-1.17-1.65-1.74c0-0.09,0-0.19,0-0.28
			c0.11-0.07,0.22-0.17,0.35-0.22c1.49-0.61,2.98-1.21,4.46-1.83c0.25-0.11,0.43-0.07,0.62,0.12c0.46,0.49,0.94,0.96,1.43,1.45
			c0.07-0.06,0.14-0.11,0.19-0.17c0.44-0.44,0.89-0.88,1.32-1.33c0.15-0.15,0.3-0.19,0.5-0.1c1.53,0.63,3.06,1.25,4.59,1.87
			c0.35,0.14,0.39,0.35,0.12,0.61c-0.5,0.51-1.01,1.01-1.53,1.53c0.52,0.69,1.02,1.36,1.52,2.03c0.27,0.36,0.24,0.48-0.16,0.68
			c-1.49,0.75-2.98,1.49-4.47,2.23c-0.33,0.17-0.4,0.15-0.63-0.15c-0.43-0.57-0.85-1.13-1.28-1.7c-0.05-0.06-0.1-0.12-0.18-0.21
			c-0.34,0.45-0.66,0.88-0.98,1.31c-0.17,0.22-0.34,0.44-0.5,0.67c-0.14,0.19-0.29,0.23-0.5,0.13c-1.55-0.78-3.09-1.55-4.64-2.33
			c-0.09-0.04-0.16-0.12-0.24-0.18C60.87-91.53,60.87-91.6,60.87-91.68z M72.42-93.57c-1.41,0.71-2.8,1.4-4.2,2.1
			c0.05,0.08,0.09,0.15,0.13,0.2c0.37,0.49,0.75,0.98,1.1,1.48c0.13,0.19,0.24,0.19,0.43,0.09c0.87-0.45,1.74-0.88,2.62-1.31
			c0.44-0.22,0.88-0.44,1.34-0.67C73.36-92.32,72.9-92.94,72.42-93.57z M68.28-96.02c1.36,0.55,2.68,1.09,4,1.62
			c0.08,0.03,0.23,0.01,0.29-0.04c0.4-0.37,0.79-0.76,1.22-1.18c-0.14-0.06-0.22-0.1-0.31-0.14c-1.14-0.46-2.27-0.93-3.41-1.39
			c-0.46-0.19-0.46-0.19-0.81,0.16C68.94-96.67,68.62-96.35,68.28-96.02z M67.57-95.49c-0.53,0.2-1.05,0.41-1.57,0.63
			c-0.74,0.3-1.48,0.61-2.26,0.93c0.09,0.05,0.14,0.09,0.2,0.12c1.21,0.61,2.43,1.22,3.65,1.81c0.1,0.05,0.27,0.03,0.38-0.03
			c1.04-0.51,2.08-1.03,3.12-1.56c0.21-0.11,0.43-0.22,0.66-0.34c-0.05-0.03-0.07-0.04-0.09-0.05c-1.25-0.51-2.49-1.02-3.74-1.52
			C67.82-95.54,67.68-95.53,67.57-95.49z M62.93-94.43c0.05,0.05,0.19,0.06,0.27,0.04c1.32-0.53,2.64-1.07,4.01-1.63
			c-0.41-0.4-0.79-0.77-1.17-1.16c-0.11-0.12-0.2-0.14-0.36-0.08c-0.83,0.35-1.67,0.69-2.5,1.03c-0.48,0.2-0.96,0.39-1.47,0.6
			C62.13-95.22,62.52-94.82,62.93-94.43z M61.65-91.68c1.38,0.69,2.74,1.37,4.1,2.05c0.05,0.02,0.15,0,0.18-0.04
			c0.45-0.58,0.88-1.17,1.35-1.79c-1.43-0.72-2.82-1.41-4.22-2.11C62.58-92.93,62.12-92.32,61.65-91.68z"/>
		<path class="st1" d="M36.64-57.46c0.02-1.04,0.01-2.08,0.01-3.11c0-1.05,0.01-2.11,0-3.16c0-0.37,0.12-0.53,0.51-0.53
			c1.95,0.01,3.9,0.01,5.85,0c0.37,0,0.53,0.13,0.53,0.52c-0.01,2.11-0.01,4.21,0,6.32c0,0.32-0.13,0.48-0.41,0.58
			c-0.92,0.32-1.83,0.67-2.75,0.98c-0.19,0.06-0.43,0.05-0.62-0.01c-0.91-0.31-1.8-0.65-2.71-0.96
			C36.74-56.95,36.63-57.13,36.64-57.46z M37.32-62.25c1.88,0,3.71,0,5.54,0c0-0.46,0-0.89,0-1.33c-1.86,0-3.69,0-5.54,0
			C37.32-63.13,37.32-62.7,37.32-62.25z M37.31-57.77c0,0.13,0.14,0.34,0.27,0.39c0.74,0.3,1.5,0.57,2.26,0.83
			c0.16,0.05,0.37,0.05,0.53-0.01c0.73-0.25,1.45-0.54,2.18-0.78c0.27-0.09,0.35-0.22,0.34-0.5c-0.02-1.12-0.01-2.23-0.01-3.35
			c0-0.12-0.02-0.24-0.03-0.35c-1.86,0-3.68,0-5.55,0C37.3-60.25,37.29-59.01,37.31-57.77z"/>
		<path class="st1" d="M53.08-0.75c0.03-0.33,0.09-0.65,0.15-1.05c-0.28,0.07-0.5,0.13-0.72,0.18c-0.37,0.1-0.73-0.19-0.69-0.58
			c0.04-0.4,0.09-0.81,0.18-1.21c0.03-0.13,0.2-0.28,0.34-0.34c2.44-1.11,4.89-2.19,7.33-3.31c1.93-0.89,3.84-1.82,5.76-2.73
			c0.43-0.2,0.72-0.06,0.84,0.41C66.29-9.24,66.3-9.12,66.32-9c0.04,0.22,0.01,0.49,0.14,0.63c0.11,0.12,0.38,0.1,0.58,0.15
			c0.29,0.08,0.42,0.3,0.48,0.57c0.08,0.41,0.13,0.82,0.21,1.23c0.05,0.26-0.03,0.4-0.28,0.5C65.94-5.29,64.43-4.65,62.93-4
			c-0.16,0.07-0.28,0.23-0.43,0.32c-0.24,0.13-0.5,0.24-0.76,0.33c-0.29,0.09-0.6,0.11-0.88,0.23c-2.34,0.98-4.67,1.97-7.01,2.96
			C53.45,0,53.03-0.31,53.08-0.75z M60.46-3.45c-0.01-0.02-0.01-0.04-0.02-0.06c-0.54,0.02-1.09,0.04-1.63,0.06
			c-0.17,0.61-0.75,0.89-1.32,0.69c-0.12-0.04-0.3-0.03-0.4,0.03c-0.96,0.55-1.91,1.12-2.87,1.69c-0.21,0.12-0.41,0.25-0.62,0.38
			c0.01,0.02,0.03,0.04,0.04,0.07C55.91-1.54,58.18-2.5,60.46-3.45z M53.6-0.93c1.15-0.68,2.3-1.36,3.45-2.04
			c-0.01-0.02-0.02-0.05-0.03-0.07c-0.86,0.24-1.74,0.42-2.58,0.73C53.69-2.03,53.51-1.64,53.6-0.93z M62.08-4.31
			c-0.09,0.41-0.37,0.39-0.63,0.4c-0.96,0.04-1.93,0.07-2.89,0.11c-0.28,0.01-0.57,0.03-0.84,0.12c-0.31,0.1-0.44,0.53-0.22,0.65
			c0.19,0.1,0.46,0.09,0.68,0.07c0.21-0.02,0.38-0.16,0.34-0.45c-0.1,0.02-0.16,0.1-0.24,0.13c-0.18,0.07-0.37,0.12-0.57,0.15
			c-0.03,0.01-0.14-0.2-0.13-0.21c0.14-0.12,0.28-0.25,0.45-0.31c0.12-0.05,0.28-0.02,0.42-0.02c1.12-0.04,2.24-0.08,3.36-0.12
			C62.12-3.82,62.21-3.94,62.08-4.31z M67.24-6.3c-0.6-0.26-1.45-0.28-1.95-0.06c-0.42,0.19-0.84,0.33-1.15,0.72
			c-0.26,0.33-0.68,0.5-1.09,0.44c-0.47-0.07-0.83,0.12-1.22,0.28c-0.25,0.1-0.51,0.21-0.75,0.33c-0.08,0.04-0.18,0.1-0.21,0.17
			c-0.1,0.26-0.3,0.29-0.54,0.26c-0.1-0.01-0.21,0.01-0.31,0.02c0,0.03,0,0.06,0.01,0.09c0.45-0.02,0.89-0.03,1.33-0.07
			c0.13-0.01,0.24-0.1,0.37-0.15c0.23-0.08,0.46-0.39,0.7,0.01C64.04-4.95,65.62-5.61,67.24-6.3z M64.21-6.04
			c-0.64-0.14-1.15,0.09-1.4,0.62C63.38-5.37,63.83-5.57,64.21-6.04z M65.92-6.82c0.4,0.06,0.75,0.11,1.15,0.16
			C67.02-7.03,67-7.37,66.91-7.7c-0.02-0.08-0.24-0.14-0.37-0.16c-0.1-0.01-0.27,0.02-0.3,0.08C66.12-7.47,66.03-7.15,65.92-6.82z
			 M61.13-6.27c0,0.02,0.01,0.04,0.03,0.1c0.12-0.05,0.22-0.09,0.32-0.13c1.12-0.49,2.25-0.98,3.37-1.48
			c0.33-0.15,0.79-0.23,0.93-0.49c0.14-0.26-0.05-0.69-0.1-1.05c0-0.02-0.02-0.03-0.05-0.07c-0.13,0.06-0.26,0.11-0.38,0.17
			c-1.08,0.51-2.16,1.03-3.24,1.55C61.13-7.25,61.13-7.25,61.13-6.27z M60.88-5.75c0-0.52,0.01-0.95,0.01-1.38
			C60.66-6.97,60.66-6.04,60.88-5.75z M52.24-2.31c0.72-0.31,1.36-0.59,2-0.86c1.98-0.86,3.97-1.72,5.95-2.58
			c0.1-0.04,0.24-0.15,0.25-0.24c0.04-0.29,0.03-0.59,0.03-0.89c-0.06,0.01-0.09,0-0.12,0.02c-2.61,1.16-5.21,2.33-7.82,3.5
			c-0.08,0.03-0.15,0.13-0.17,0.21C52.31-2.91,52.28-2.65,52.24-2.31z M57.02-3.22c0.06-0.02,0.14-0.08,0.16-0.13
			c0.2-0.52,0.62-0.64,1.12-0.63c0.52,0.01,1.04,0.03,1.5-0.26c0.08-0.05,0.17-0.13,0.2-0.22c0.06-0.25,0.24-0.34,0.44-0.28
			c0.29,0.09,0.53-0.01,0.79-0.12c0.33-0.15,0.67-0.27,1-0.43c0.16-0.08,0.31-0.2,0.41-0.34c0.37-0.5,0.84-0.74,1.48-0.66
			c0.21,0.02,0.46-0.01,0.66-0.1c0.94-0.39,0.94-0.4,1.21-1.35c0.02-0.08,0-0.17-0.01-0.3c-1.63,0.72-3.21,1.41-4.78,2.1
			c0.04,0.11,0.07,0.18,0.12,0.29c-0.27,0.06-0.5,0.43-0.79,0c-2.75,1.2-5.47,2.39-8.23,3.59c0.07,0.03,0.09,0.05,0.11,0.04
			C53.94-2.41,55.48-2.81,57.02-3.22z"/>
		<path class="st1" d="M19.23-6.2c1.99-4.16,4.65-7.89,7.4-11.56c0.52-0.69,0.9-1.49,1.24-2.29c0.23-0.54,0.58-0.64,1.09-0.64
			c2.58,0.01,5.16,0.01,7.75,0.01c0.3,0,0.6,0,0.92,0c0.84-3.07,2-6.03,1.72-9.27c0-0.05,0-0.11,0-0.16
			c0.01-0.52-0.01-1.1-0.68-1.08c-0.61,0.01-0.65,0.55-0.64,1.05c0.01,0.85-0.03,1.71,0.01,2.56c0.03,0.55-0.23,0.81-0.68,1.08
			c-1.12,0.68-2.22,1.4-3.26,2.18c-0.52,0.38-0.84,0.39-1.36,0c-1.04-0.79-2.14-1.51-3.26-2.19c-0.45-0.27-0.71-0.52-0.68-1.08
			c0.04-0.88,0-1.76,0.01-2.64c0-0.48-0.08-0.96-0.64-0.97c-0.61-0.01-0.67,0.5-0.69,1c-0.08,2.24,0.13,4.44,0.89,6.57
			c0.08,0.23,0.24,0.48,0.2,0.7c-0.05,0.31-0.24,0.6-0.37,0.89c-0.3-0.16-0.81-0.27-0.86-0.5c-0.44-1.66-0.86-3.34-1.13-5.03
			c-0.16-0.99-0.05-2.03-0.03-3.05c0.02-1.14,0.88-1.96,2-1.95c1.08,0.01,1.91,0.82,1.94,1.93c0.02,0.91-0.27,1.96,0.1,2.68
			c0.37,0.69,1.41,1.02,2.14,1.53c0.36,0.25,0.69,0.53,0.98,0.75c1.04-0.65,2.04-1.26,3.02-1.92c0.18-0.12,0.33-0.42,0.34-0.65
			c0.04-0.77,0.01-1.54,0.02-2.31c0.02-1.17,0.83-2,1.94-2.02c1.16-0.02,1.92,0.82,2.03,2.03c0.29,3.28-0.57,6.36-1.52,9.43
			c-0.27,0.89-0.14,1.65,0.32,2.43c0.51,0.85,0.26,1.27-0.73,1.28c-0.46,0.01-0.92,0-1.47,0c0.24,0.59,0.46,1.08,0.66,1.59
			c0.17,0.43,0.15,0.9-0.35,0.99c-0.26,0.05-0.59-0.3-0.89-0.47c-0.04-0.02-0.05-0.1-0.07-0.15c-1.16-2.44-0.42-1.95-3.41-1.91
			c-0.15,0.62-0.25,1.27-0.48,1.88c-0.11,0.28-0.47,0.65-0.73,0.66c-0.52,0.02-0.63-0.44-0.56-0.89c0.08-0.54,0.2-1.07,0.16-1.79
			c-0.26,0.18-0.62,0.31-0.75,0.56c-0.49,0.92-0.92,1.87-1.33,2.82c-0.2,0.45-0.44,0.82-0.97,0.62c-0.54-0.2-0.49-0.66-0.3-1.1
			c0.38-0.9,0.77-1.81,1.17-2.75c-0.85-0.2-1.44-0.01-2,0.75c-2.41,3.27-4.8,6.56-6.59,10.23c-0.09,0.19-0.18,0.39-0.27,0.58
			c7.09,4.65,18.65,4.64,25.71,0c-1.54-3.16-3.38-6.14-5.49-8.95c-0.2-0.26-0.49-0.5-0.57-0.79c-0.08-0.31,0.03-0.68,0.06-1.02
			c0.34,0.07,0.72,0.07,0.99,0.24c0.26,0.16,0.41,0.5,0.61,0.76c2.15,2.86,4.03,5.89,5.59,9.11c0.13,0.26,0.3,0.5,0.46,0.74
			c0,0.11,0,0.22,0,0.33c-0.3,0.27-0.57,0.59-0.91,0.8c-2.34,1.47-4.9,2.42-7.59,2.98c-1.38,0.29-2.79,0.45-4.19,0.68
			c-1.21,0-2.42,0-3.63,0c-1.4-0.22-2.81-0.39-4.2-0.68c-2.73-0.56-5.3-1.56-7.69-3.02C19.01-5.01,18.86-5.45,19.23-6.2z
			 M28.9-18.95c0.04,0.07,0.07,0.14,0.11,0.22c2.93,0,5.86,0,8.79,0c0.04-0.09,0.08-0.18,0.13-0.27c-0.24-0.12-0.47-0.35-0.71-0.35
			c-2.52-0.03-5.05-0.03-7.57,0C29.39-19.34,29.14-19.08,28.9-18.95z"/>
		<path class="st1" d="M33.97-58.53c0.33-0.03,0.54-0.21,0.55-0.49c0.01-0.41-0.26-0.69-0.57-0.66c-0.33,0.03-0.54,0.21-0.55,0.57
			C33.39-58.79,33.65-58.5,33.97-58.53z"/>
		<path class="st1" d="M27.89-36.25c-0.02-0.16-0.17-0.29-0.33-0.54c-0.18,0.21-0.39,0.36-0.36,0.42c0.07,0.15,0.21,0.31,0.36,0.37
			C27.64-35.97,27.9-36.18,27.89-36.25z"/>
		<path class="st1" d="M33.98-68.99c0.33-0.04,0.53-0.21,0.54-0.56c0.01-0.34-0.24-0.58-0.58-0.57c-0.33,0.01-0.57,0.27-0.54,0.61
			C33.43-69.16,33.64-69,33.98-68.99z"/>
	</g>
</pattern>
<rect class="st2" width="100" height="100"/>
</svg>
